<svg width="14" height="14" viewBox="0 0 14 14" fill="none" xmlns="http://www.w3.org/2000/svg">
<path d="M6.99984 1.1665C3.78334 1.1665 1.1665 3.78334 1.1665 6.99984V9.41659C1.1665 10.0139 1.68975 10.4998 2.33317 10.4998H2.9165C3.07121 10.4998 3.21959 10.4384 3.32898 10.329C3.43838 10.2196 3.49984 10.0712 3.49984 9.9165V6.91642C3.49984 6.76171 3.43838 6.61334 3.32898 6.50394C3.21959 6.39455 3.07121 6.33309 2.9165 6.33309H2.38684C2.71117 4.07559 4.65367 2.33317 6.99984 2.33317C9.346 2.33317 11.2885 4.07559 11.6128 6.33309H11.0832C10.9285 6.33309 10.7801 6.39455 10.6707 6.50394C10.5613 6.61334 10.4998 6.76171 10.4998 6.91642V10.4998C10.4998 11.1433 9.97659 11.6665 9.33317 11.6665H8.1665V11.0832H5.83317V12.8332H9.33317C10.62 12.8332 11.6665 11.7867 11.6665 10.4998C12.3099 10.4998 12.8332 10.0139 12.8332 9.41659V6.99984C12.8332 3.78334 10.2163 1.1665 6.99984 1.1665Z" fill="#FFD4D4"/>
</svg>
