<svg width="14" height="14" viewBox="0 0 14 14" fill="none" xmlns="http://www.w3.org/2000/svg">
<path d="M6.99881 2.50329V2.93656L5.77692 2.93657C5.5114 2.93657 5.29185 3.12543 5.25673 3.37071L5.25183 3.4389L5.24712 6.291H6.2973L6.30114 3.9429L6.99881 3.94289L6.99843 6.9652L6.2973 6.96456L6.29659 6.96188H5.24572L5.24642 6.96456H1.78853L2.99443 5.80812C3.18082 5.62946 3.19771 5.34992 3.04515 5.15296L2.9943 5.09654C2.80785 4.91793 2.51614 4.90174 2.3106 5.04793L2.25171 5.09666L0.15373 7.10774C-0.0324831 7.28624 -0.0495443 7.56546 0.102639 7.76242L0.153372 7.81886L2.25136 9.83383C2.45618 10.0305 2.78865 10.0309 2.99394 9.83464C3.18057 9.6562 3.19785 9.37669 3.04556 9.17954L2.99479 9.12305L1.79553 7.97089L6.99843 7.97153L6.99881 10.9879L6.28896 10.9882L6.29379 8.6391H5.24292L5.23791 11.4905C5.23747 11.7455 5.43509 11.9565 5.69167 11.9899L5.763 11.9945L6.99881 11.9942V12.4967C6.99881 12.8096 7.29368 13.0466 7.61523 12.9922L13.5662 11.985C13.8171 11.9425 14 11.7336 14 11.4895V3.43973C14 3.19331 13.8138 2.98315 13.56 2.94322L7.60899 2.00677C7.28931 1.95647 6.99881 2.19285 6.99881 2.50329ZM9.44772 7.29733C9.83522 7.29733 10.1493 7.59834 10.1493 7.96966C10.1493 8.34097 9.83522 8.64198 9.44772 8.64198C9.06023 8.64198 8.7461 8.34097 8.7461 7.96966C8.7461 7.59834 9.06023 7.29733 9.44772 7.29733Z" fill="#FFD4D4"/>
</svg>
