<svg width="14" height="14" viewBox="0 0 14 14" fill="none" xmlns="http://www.w3.org/2000/svg">
<rect x="1.5" y="0.5" width="11" height="13" rx="1.5" stroke="#FFD4D4"/>
<path d="M6.81278 3.57303C6.74592 3.61375 6.04802 4.27753 5.26235 5.0472C3.69521 6.5906 3.6367 6.6639 3.52804 7.24624C3.32327 8.37426 4.26774 9.40455 5.45459 9.35161C5.63847 9.34347 5.78891 9.35161 5.78891 9.3679C5.78891 9.38419 5.73041 9.53894 5.65936 9.71405C5.4922 10.1335 5.48802 10.2801 5.63847 10.4023L5.7513 10.5H7.00084H8.25038L8.36321 10.4023C8.51366 10.2801 8.50948 10.1335 8.34232 9.71405C8.27128 9.53894 8.21277 9.38419 8.21277 9.3679C8.21277 9.35161 8.36321 9.34347 8.54291 9.35161C9.11962 9.38012 9.6044 9.18872 9.98887 8.78149C10.5405 8.20323 10.6533 7.41727 10.2898 6.70055C10.1811 6.48472 9.9429 6.23223 8.71843 5.03091C7.92441 4.24903 7.22233 3.58524 7.15965 3.55266C7.01338 3.47936 6.96323 3.47936 6.81278 3.57303ZM8.34232 5.60103C9.81335 7.04262 9.82171 7.05484 9.82171 7.56795C9.81753 7.88966 9.71305 8.14214 9.48738 8.36205C9.0653 8.77335 8.40918 8.81407 7.90352 8.45978C7.58591 8.23988 7.36024 8.25209 7.25576 8.49643C7.20979 8.60231 7.22651 8.67154 7.41039 9.16021C7.5274 9.46156 7.63188 9.73848 7.6486 9.77513C7.67785 9.84436 7.6277 9.84843 7.00084 9.84843C6.37398 9.84843 6.32383 9.84436 6.35309 9.77513C6.3698 9.73848 6.47428 9.46156 6.59129 9.16021C6.77517 8.67154 6.79189 8.60231 6.74592 8.49643C6.64562 8.25617 6.39906 8.2358 6.12742 8.44349C5.34593 9.05026 4.18833 8.52901 4.17998 7.56795C4.17998 7.05484 4.18833 7.04262 5.65936 5.60103C6.38234 4.89245 6.9883 4.31011 7.00084 4.31011C7.01338 4.31011 7.61934 4.89245 8.34232 5.60103Z" fill="#FFD4D4" stroke="#FFD4D4" stroke-width="0.2"/>
</svg>
